<?xml version="1.0" standalone="no"?>
<!DOCTYPE svg PUBLIC "-//W3C//DTD SVG 20010904//EN"
 "http://www.w3.org/TR/2001/REC-SVG-20010904/DTD/svg10.dtd">
<svg version="1.0" xmlns="http://www.w3.org/2000/svg"
 width="840.000000pt" height="859.000000pt" viewBox="0 0 840.000000 859.000000"
 preserveAspectRatio="xMidYMid meet">
<metadata>
Created by potrace 1.16, written by Peter Selinger 2001-2019
</metadata>
<g transform="translate(0.000000,859.000000) scale(0.100000,-0.100000)"
fill="#000000" stroke="none">
<path d="M5730 7921 c-70 -23 -124 -69 -355 -300 l-250 -251 -165 164 c-91 90
-183 173 -205 184 -94 47 -194 50 -305 10 -52 -19 -166 -132 -2202 -2167
-2426 -2425 -2203 -2186 -2203 -2361 0 -152 -8 -141 458 -604 265 -263 416
-405 442 -417 56 -26 91 -24 165 12 51 25 82 33 146 37 116 6 170 -13 250 -92
112 -111 134 -241 66 -393 -35 -77 -40 -126 -18 -176 7 -18 191 -211 410 -434
357 -362 404 -406 464 -435 59 -30 76 -33 152 -33 76 0 93 4 151 32 56 28 99
67 308 278 133 135 245 245 248 245 4 0 81 -73 172 -163 202 -199 224 -212
361 -212 83 0 102 3 150 27 46 23 388 360 2206 2180 2098 2099 2152 2154 2174
2213 18 49 21 75 18 145 -7 145 1 134 -451 584 -221 219 -415 407 -432 417
-48 30 -120 25 -201 -13 -60 -28 -80 -33 -149 -33 -67 0 -89 5 -136 27 -70 35
-132 97 -167 168 -23 46 -27 68 -27 135 0 70 4 89 33 149 38 81 43 153 13 201
-10 17 -198 211 -417 431 -453 456 -439 445 -589 450 -49 2 -101 0 -115 -5z
m776 -1038 c-4 -9 -14 -57 -22 -107 -36 -207 17 -401 149 -543 79 -84 159
-136 261 -169 68 -22 100 -27 196 -27 79 0 135 5 178 17 l63 17 117 -110 c64
-60 219 -212 344 -338 l228 -228 -2100 -2100 -2100 -2100 -140 140 -140 140
1482 1482 c816 816 1486 1483 1489 1483 3 0 24 -16 45 -36 21 -20 53 -43 71
-50 116 -49 243 38 243 166 0 50 -21 93 -68 143 l-36 37 151 153 c192 193 208
222 208 362 0 85 -4 108 -24 150 -35 75 -805 845 -875 876 -59 26 -97 22 -190
-22 -133 -62 -282 -34 -382 73 -69 73 -89 126 -89 228 0 75 4 93 33 154 41 88
43 147 6 202 -14 21 -71 85 -127 142 l-102 102 230 230 230 231 338 -341 c247
-248 337 -345 333 -357z m-1738 344 c94 -94 180 -188 190 -207 10 -19 43 -52
73 -72 30 -20 96 -79 147 -130 l93 -94 -16 -60 c-8 -32 -18 -97 -22 -144 -21
-299 170 -571 454 -644 80 -21 242 -21 338 1 l76 16 335 -334 c184 -184 333
-339 332 -345 -4 -17 -312 -326 -2024 -2035 -835 -835 -1533 -1524 -1550
-1533 -34 -16 -84 -70 -84 -89 0 -7 -118 -130 -262 -274 l-263 -263 -341 341
-342 341 14 52 c8 28 17 96 21 152 12 195 -44 343 -181 479 -89 88 -169 134
-277 160 -83 19 -230 19 -326 -1 l-76 -15 -71 68 c-249 241 -606 599 -606 607
0 6 742 753 1648 1659 l1648 1648 67 -26 c37 -14 73 -25 80 -25 7 0 41 20 75
45 l62 45 0 83 c0 60 -4 89 -16 106 -17 23 -15 25 302 342 175 175 321 319
324 319 3 0 83 -78 178 -173z"/>
<path d="M4111 6390 c-30 -21 -58 -45 -62 -52 -5 -7 -9 -45 -9 -84 0 -81 15
-108 111 -201 43 -41 69 -56 126 -74 l72 -23 66 45 65 44 0 88 0 87 -79 83
c-72 75 -86 85 -148 105 -38 12 -74 22 -79 22 -5 0 -33 -18 -63 -40z"/>
<path d="M4608 5883 l-68 -46 0 -83 0 -83 79 -83 c72 -76 86 -85 155 -109 l75
-27 63 44 c59 41 63 46 70 91 16 115 15 116 -73 208 -81 84 -98 94 -224 131
-5 1 -40 -18 -77 -43z"/>
<path d="M5114 5387 l-61 -41 -7 -80 c-7 -94 0 -109 96 -203 54 -54 73 -65
139 -86 l76 -24 60 43 60 43 6 78 c6 93 -1 108 -95 200 -53 52 -75 67 -137 88
-41 14 -75 25 -75 24 -1 0 -29 -19 -62 -42z"/>
<path d="M5615 4880 c-56 -37 -60 -43 -67 -87 -15 -114 -16 -114 76 -210 78
-82 89 -90 156 -112 l72 -23 61 43 c34 24 65 48 69 53 4 6 8 46 8 89 l0 77
-79 83 c-72 75 -86 85 -148 105 -38 12 -74 22 -79 22 -5 0 -36 -18 -69 -40z"/>
</g>
</svg>
